<svg xmlns="http://www.w3.org/2000/svg" xmlns:xlink="http://www.w3.org/1999/xlink" width="1080" zoomAndPan="magnify" viewBox="0 0 810 1439.999935" height="1920" preserveAspectRatio="xMidYMid meet" version="1.0"><defs><clipPath id="47032fec03"><path d="M 613 136.65625 L 674 136.65625 L 674 197.40625 L 613 197.40625 Z M 613 136.65625 " clip-rule="nonzero"/></clipPath><clipPath id="ae2fa87059"><path d="M 146 136.65625 L 208 136.65625 L 208 197.40625 L 146 197.40625 Z M 146 136.65625 " clip-rule="nonzero"/></clipPath></defs><rect x="-81" width="972" fill="#ffffff" y="-143.999994" height="1727.999922" fill-opacity="1"/><rect x="-81" width="972" fill="#ffffff" y="-143.999994" height="1727.999922" fill-opacity="1"/><path fill="#000000" d="M 773.210938 168.351562 L 60.925781 168.351562 C 60.40625 168.351562 59.984375 167.929688 59.984375 167.40625 C 59.984375 166.886719 60.40625 166.460938 60.925781 166.460938 L 773.210938 166.460938 C 773.730469 166.460938 774.152344 166.886719 774.152344 167.40625 C 774.152344 167.929688 773.730469 168.351562 773.210938 168.351562 Z M 773.210938 168.351562 " fill-opacity="1" fill-rule="nonzero"/><g clip-path="url(#47032fec03)"><path fill="#000000" d="M 644.261719 196.792969 C 644.980469 184.035156 645.574219 176.632812 649.382812 172.816406 C 653.1875 169 660.566406 168.402344 673.289062 167.679688 C 673.628906 167.664062 673.898438 167.375 673.898438 167.035156 C 673.898438 166.6875 673.628906 166.40625 673.289062 166.386719 C 660.566406 165.664062 653.1875 165.070312 649.382812 161.253906 C 645.574219 157.433594 644.980469 150.03125 644.261719 137.273438 C 644.242188 136.929688 643.957031 136.660156 643.613281 136.660156 C 643.269531 136.660156 642.988281 136.929688 642.964844 137.273438 C 642.246094 150.03125 641.652344 157.433594 637.847656 161.253906 C 634.042969 165.070312 626.660156 165.664062 613.941406 166.386719 C 613.601562 166.40625 613.332031 166.691406 613.332031 167.035156 C 613.332031 167.378906 613.597656 167.664062 613.941406 167.679688 C 626.660156 168.402344 634.042969 169 637.847656 172.816406 C 641.652344 176.632812 642.246094 184.035156 642.964844 196.792969 C 642.984375 197.140625 643.269531 197.40625 643.613281 197.40625 C 643.957031 197.40625 644.242188 197.136719 644.261719 196.792969 Z M 644.261719 196.792969 " fill-opacity="1" fill-rule="nonzero"/></g><path fill="#000000" d="M 774.570312 167.605469 C 774.570312 168.535156 774.480469 169.457031 774.296875 170.371094 C 774.117188 171.285156 773.847656 172.171875 773.492188 173.03125 C 773.136719 173.890625 772.703125 174.707031 772.1875 175.484375 C 771.671875 176.257812 771.085938 176.972656 770.429688 177.632812 C 769.773438 178.289062 769.058594 178.878906 768.285156 179.394531 C 767.515625 179.914062 766.699219 180.351562 765.839844 180.707031 C 764.984375 181.0625 764.097656 181.332031 763.1875 181.515625 C 762.277344 181.695312 761.359375 181.785156 760.429688 181.785156 C 759.5 181.785156 758.582031 181.695312 757.671875 181.515625 C 756.761719 181.332031 755.875 181.0625 755.019531 180.707031 C 754.160156 180.351562 753.347656 179.914062 752.574219 179.394531 C 751.800781 178.878906 751.085938 178.289062 750.429688 177.632812 C 749.773438 176.972656 749.1875 176.257812 748.671875 175.484375 C 748.15625 174.707031 747.722656 173.890625 747.367188 173.03125 C 747.011719 172.171875 746.742188 171.285156 746.5625 170.371094 C 746.378906 169.457031 746.289062 168.535156 746.289062 167.605469 C 746.289062 166.671875 746.378906 165.75 746.5625 164.835938 C 746.742188 163.921875 747.011719 163.035156 747.367188 162.175781 C 747.722656 161.316406 748.15625 160.5 748.671875 159.722656 C 749.1875 158.949219 749.773438 158.234375 750.429688 157.574219 C 751.085938 156.917969 751.800781 156.328125 752.574219 155.8125 C 753.347656 155.292969 754.160156 154.855469 755.019531 154.5 C 755.875 154.144531 756.761719 153.875 757.671875 153.691406 C 758.582031 153.511719 759.5 153.421875 760.429688 153.421875 C 761.359375 153.421875 762.277344 153.511719 763.1875 153.691406 C 764.097656 153.875 764.984375 154.144531 765.839844 154.5 C 766.699219 154.855469 767.515625 155.292969 768.285156 155.8125 C 769.058594 156.328125 769.773438 156.917969 770.429688 157.574219 C 771.085938 158.234375 771.671875 158.949219 772.1875 159.722656 C 772.703125 160.5 773.136719 161.316406 773.492188 162.175781 C 773.847656 163.035156 774.117188 163.921875 774.296875 164.835938 C 774.480469 165.75 774.570312 166.671875 774.570312 167.605469 Z M 774.570312 167.605469 " fill-opacity="1" fill-rule="nonzero"/><path fill="#000000" d="M 716.125 167.605469 C 716.125 168.222656 716.0625 168.839844 715.941406 169.449219 C 715.824219 170.058594 715.644531 170.648438 715.40625 171.222656 C 715.171875 171.796875 714.878906 172.339844 714.535156 172.855469 C 714.191406 173.371094 713.800781 173.851562 713.363281 174.289062 C 712.925781 174.726562 712.449219 175.121094 711.933594 175.464844 C 711.421875 175.808594 710.878906 176.101562 710.304688 176.339844 C 709.734375 176.578125 709.144531 176.757812 708.535156 176.878906 C 707.929688 177 707.316406 177.058594 706.699219 177.058594 C 706.078125 177.058594 705.464844 177 704.859375 176.878906 C 704.25 176.757812 703.660156 176.578125 703.089844 176.339844 C 702.519531 176.101562 701.976562 175.808594 701.460938 175.464844 C 700.945312 175.121094 700.46875 174.726562 700.03125 174.289062 C 699.59375 173.851562 699.203125 173.371094 698.859375 172.855469 C 698.515625 172.339844 698.226562 171.796875 697.988281 171.222656 C 697.75 170.648438 697.574219 170.058594 697.453125 169.449219 C 697.332031 168.839844 697.269531 168.222656 697.269531 167.605469 C 697.269531 166.984375 697.332031 166.367188 697.453125 165.757812 C 697.574219 165.148438 697.75 164.558594 697.988281 163.984375 C 698.226562 163.410156 698.515625 162.867188 698.859375 162.351562 C 699.203125 161.835938 699.59375 161.355469 700.03125 160.917969 C 700.46875 160.480469 700.945312 160.085938 701.460938 159.742188 C 701.976562 159.398438 702.519531 159.105469 703.089844 158.867188 C 703.660156 158.628906 704.25 158.449219 704.859375 158.328125 C 705.464844 158.207031 706.078125 158.148438 706.699219 158.148438 C 707.316406 158.148438 707.929688 158.207031 708.535156 158.328125 C 709.144531 158.449219 709.734375 158.628906 710.304688 158.867188 C 710.878906 159.105469 711.421875 159.398438 711.933594 159.742188 C 712.449219 160.085938 712.925781 160.480469 713.363281 160.917969 C 713.800781 161.355469 714.191406 161.835938 714.535156 162.351562 C 714.878906 162.867188 715.171875 163.410156 715.40625 163.984375 C 715.644531 164.558594 715.824219 165.148438 715.941406 165.757812 C 716.0625 166.367188 716.125 166.984375 716.125 167.605469 Z M 716.125 167.605469 " fill-opacity="1" fill-rule="nonzero"/><g clip-path="url(#ae2fa87059)"><path fill="#000000" d="M 176.152344 137.269531 C 175.433594 150.027344 174.839844 157.429688 171.035156 161.246094 C 167.230469 165.066406 159.847656 165.660156 147.128906 166.382812 C 146.785156 166.398438 146.519531 166.6875 146.519531 167.027344 C 146.519531 167.375 146.785156 167.65625 147.128906 167.675781 C 159.847656 168.398438 167.230469 168.992188 171.035156 172.8125 C 174.839844 176.628906 175.433594 184.03125 176.152344 196.789062 C 176.171875 197.132812 176.457031 197.402344 176.800781 197.402344 C 177.144531 197.402344 177.429688 197.132812 177.449219 196.789062 C 178.167969 184.03125 178.761719 176.628906 182.566406 172.8125 C 186.375 168.992188 193.753906 168.398438 206.472656 167.675781 C 206.816406 167.65625 207.085938 167.371094 207.085938 167.027344 C 207.085938 166.683594 206.816406 166.398438 206.472656 166.382812 C 193.753906 165.660156 186.375 165.066406 182.566406 161.246094 C 178.761719 157.429688 178.167969 150.027344 177.449219 137.269531 C 177.429688 136.921875 177.144531 136.65625 176.800781 136.65625 C 176.457031 136.65625 176.175781 136.925781 176.152344 137.269531 Z M 176.152344 137.269531 " fill-opacity="1" fill-rule="nonzero"/></g><path fill="#000000" d="M 74.125 166.460938 C 74.125 167.390625 74.03125 168.3125 73.851562 169.226562 C 73.671875 170.140625 73.402344 171.027344 73.046875 171.886719 C 72.691406 172.746094 72.257812 173.566406 71.742188 174.339844 C 71.222656 175.113281 70.636719 175.828125 69.980469 176.488281 C 69.324219 177.148438 68.609375 177.734375 67.839844 178.253906 C 67.066406 178.769531 66.253906 179.207031 65.394531 179.5625 C 64.535156 179.917969 63.652344 180.1875 62.742188 180.371094 C 61.832031 180.550781 60.910156 180.640625 59.984375 180.640625 C 59.054688 180.640625 58.136719 180.550781 57.226562 180.371094 C 56.3125 180.1875 55.429688 179.917969 54.570312 179.5625 C 53.714844 179.207031 52.898438 178.769531 52.128906 178.253906 C 51.355469 177.734375 50.640625 177.148438 49.984375 176.488281 C 49.328125 175.828125 48.742188 175.113281 48.226562 174.339844 C 47.710938 173.566406 47.273438 172.746094 46.917969 171.886719 C 46.5625 171.027344 46.296875 170.140625 46.113281 169.226562 C 45.933594 168.3125 45.84375 167.390625 45.84375 166.460938 C 45.84375 165.527344 45.933594 164.605469 46.113281 163.691406 C 46.296875 162.777344 46.5625 161.890625 46.917969 161.03125 C 47.273438 160.171875 47.710938 159.355469 48.226562 158.578125 C 48.742188 157.804688 49.328125 157.089844 49.984375 156.429688 C 50.640625 155.773438 51.355469 155.183594 52.128906 154.667969 C 52.898438 154.148438 53.714844 153.710938 54.570312 153.355469 C 55.429688 153 56.3125 152.730469 57.226562 152.550781 C 58.136719 152.367188 59.054688 152.277344 59.984375 152.277344 C 60.910156 152.277344 61.832031 152.367188 62.742188 152.550781 C 63.652344 152.730469 64.535156 153 65.394531 153.355469 C 66.253906 153.710938 67.066406 154.148438 67.839844 154.667969 C 68.609375 155.183594 69.324219 155.773438 69.980469 156.429688 C 70.636719 157.089844 71.222656 157.804688 71.742188 158.578125 C 72.257812 159.355469 72.691406 160.171875 73.046875 161.03125 C 73.402344 161.890625 73.671875 162.777344 73.851562 163.691406 C 74.03125 164.605469 74.125 165.527344 74.125 166.460938 Z M 74.125 166.460938 " fill-opacity="1" fill-rule="nonzero"/><path fill="#000000" d="M 123.140625 166.460938 C 123.140625 167.082031 123.082031 167.695312 122.960938 168.304688 C 122.839844 168.914062 122.660156 169.503906 122.425781 170.078125 C 122.1875 170.652344 121.898438 171.195312 121.554688 171.710938 C 121.210938 172.230469 120.820312 172.707031 120.382812 173.144531 C 119.945312 173.585938 119.46875 173.976562 118.953125 174.320312 C 118.4375 174.667969 117.894531 174.957031 117.324219 175.195312 C 116.75 175.433594 116.160156 175.613281 115.554688 175.734375 C 114.949219 175.855469 114.335938 175.914062 113.714844 175.914062 C 113.097656 175.914062 112.484375 175.855469 111.875 175.734375 C 111.269531 175.613281 110.679688 175.433594 110.109375 175.195312 C 109.535156 174.957031 108.992188 174.667969 108.476562 174.320312 C 107.964844 173.976562 107.488281 173.585938 107.050781 173.144531 C 106.613281 172.707031 106.222656 172.230469 105.878906 171.710938 C 105.535156 171.195312 105.242188 170.652344 105.007812 170.078125 C 104.769531 169.503906 104.589844 168.914062 104.46875 168.304688 C 104.347656 167.695312 104.289062 167.082031 104.289062 166.460938 C 104.289062 165.839844 104.347656 165.222656 104.46875 164.613281 C 104.589844 164.007812 104.769531 163.414062 105.007812 162.839844 C 105.242188 162.265625 105.535156 161.722656 105.878906 161.207031 C 106.222656 160.691406 106.613281 160.210938 107.050781 159.773438 C 107.488281 159.335938 107.964844 158.941406 108.476562 158.597656 C 108.992188 158.253906 109.535156 157.960938 110.109375 157.722656 C 110.679688 157.488281 111.269531 157.308594 111.875 157.1875 C 112.484375 157.066406 113.097656 157.003906 113.714844 157.003906 C 114.335938 157.003906 114.949219 157.066406 115.554688 157.1875 C 116.160156 157.308594 116.75 157.488281 117.324219 157.722656 C 117.894531 157.960938 118.4375 158.253906 118.953125 158.597656 C 119.46875 158.941406 119.945312 159.335938 120.382812 159.773438 C 120.820312 160.210938 121.210938 160.691406 121.554688 161.207031 C 121.898438 161.722656 122.1875 162.265625 122.425781 162.839844 C 122.660156 163.414062 122.839844 164.007812 122.960938 164.613281 C 123.082031 165.222656 123.140625 165.839844 123.140625 166.460938 Z M 123.140625 166.460938 " fill-opacity="1" fill-rule="nonzero"/></svg>